<?xml version="1.0" encoding="UTF-8" standalone="no"?>
<!-- Created with Inkscape (http://www.inkscape.org/) -->

<svg
   width="32"
   height="32"
   viewBox="0 0 32 32"
   version="1.1"
   id="svg1"
   xml:space="preserve"
   xmlns="http://www.w3.org/2000/svg"
   xmlns:svg="http://www.w3.org/2000/svg"><defs
     id="defs1"><linearGradient
       id="swatch1"><stop
         style="stop-color:#000000;stop-opacity:1;"
         offset="0"
         id="stop1" /></linearGradient><filter
       id="mask-powermask-path-effect20_inverse"
       style="color-interpolation-filters:sRGB"
       height="100"
       width="100"
       x="-50"
       y="-50"><feColorMatrix
         id="mask-powermask-path-effect20_primitive1"
         values="1"
         type="saturate"
         result="fbSourceGraphic" /><feColorMatrix
         id="mask-powermask-path-effect20_primitive2"
         values="-1 0 0 0 1 0 -1 0 0 1 0 0 -1 0 1 0 0 0 1 0 "
         in="fbSourceGraphic" /></filter></defs><path
     id="path2-35-0"
     style="baseline-shift:baseline;display:inline;overflow:visible;opacity:1;vector-effect:none;fill:#ffffff;fill-opacity:1;stroke:#ffffff;stroke-width:1;stroke-opacity:1;enable-background:accumulate;stop-color:#000000;stop-opacity:1"
     d="m 15.999864,0.77893384 -0.03258,0.026713 c 0,0 -3.001415,2.66101286 -3.695861,6.18967136 C 9.2844874,4.990778 5.2824343,5.2341999 5.2824343,5.2341999 l -0.045811,0.00573 v 0.040069 c 0,0 -0.2462613,4.0022113 1.7572985,6.9891391 -3.5245873,0.697787 -6.17821643,3.701591 -6.17821643,3.701591 l -0.0268081,0.03244 0.0268081,0.03434 c 0,0 2.65182383,2.9973 6.17630923,3.693959 -2.0054261,2.987172 -1.7553913,6.989139 -1.7553913,6.989139 v 0.04579 h 0.045811 c 0,0 4.0023484,0.247089 6.9891307,-1.755394 0.694507,3.527377 3.695861,6.183948 3.695861,6.183948 l 0.03258,0.02671 0.03258,-0.02671 c 0,0 3.005433,-2.65938 3.697771,-6.189672 2.986956,2.003946 6.98722,1.761118 6.98722,1.761118 h 0.04578 v -0.04579 c 0,0 0.246023,-4.002247 -1.757299,-6.989139 3.52475,-0.696464 6.178217,-3.693959 6.178217,-3.693959 l 0.02681,-0.03434 -0.02681,-0.03244 c 0,0 -2.64988,-3.000431 -6.172495,-3.699683 2.001349,-2.9866437 1.751569,-6.9910417 1.751569,-6.9910417 v -0.040069 l -0.04578,-0.00573 c 0,0 -4.002355,-0.2414045 -6.989131,1.7611179 C 19.033737,3.4666321 16.032302,0.80564634 16.032302,0.80564634 Z m 0,0.1392866 c 0.06634,0.059275 3.77791,3.38629426 3.77791,7.50240066 0,3.1920329 -2.231493,5.9058509 -3.26465,6.9910469 -0.207678,0.196251 -0.362405,0.353374 -0.454113,0.450296 -0.03478,0.03237 -0.0547,0.05137 -0.05915,0.05533 -0.0044,-0.004 -0.02443,-0.02297 -0.05915,-0.05533 -0.08212,-0.07634 -0.244055,-0.229646 -0.454112,-0.450296 -1.033164,-1.085209 -3.264651,-3.799033 -3.264651,-6.9910469 0,-4.1161064 3.711576,-7.44312616 3.777911,-7.50240066 z M 6.0265662,5.3276937 c 1.2698796,0.030168 4.0292818,0.2803338 6.2259178,1.7706581 -0.07873,0.4297441 -0.12403,0.8707255 -0.12403,1.3222693 0,2.6969159 1.573785,5.0602529 2.705593,6.4110039 -1.353555,-1.13344 -3.71558,-2.705597 -6.4090885,-2.705597 -0.4535898,0 -0.8984584,0.04448 -1.3298992,0.124023 C 5.1117277,9.3254484 5.3238715,5.4102471 5.3282185,5.333418 5.3448465,5.3324781 5.6032561,5.317639 6.0265594,5.327688 Z m 19.9408698,0 c 0.424013,-0.010452 0.6849,0.00465 0.704066,0.00573 0.0044,0.076657 0.212056,3.9918138 -1.772565,6.9166333 -0.429602,-0.07887 -0.872638,-0.124023 -1.324175,-0.124023 -2.693509,0 -5.055534,1.572157 -6.409088,2.705596 1.131807,-1.35075 2.705592,-3.714088 2.705592,-6.4110033 0,-0.4501321 -0.04384,-0.8899747 -0.122129,-1.3184533 2.19388,-1.4899813 4.946255,-1.7431583 6.218286,-1.7744741 z M 8.4249653,12.225246 c 3.2613287,0 6.0218467,2.330684 7.0578207,3.331432 0.12834,0.133664 0.237303,0.240278 0.318643,0.318643 0.07225,0.07575 0.112221,0.121023 0.118295,0.12784 -0.0041,0.0046 -0.0224,0.02759 -0.05725,0.06487 -0.09349,0.08853 -0.24599,0.235435 -0.435031,0.435032 -1.076559,1.025895 -3.797843,3.272283 -7.0024875,3.272283 -4.1161199,0 -7.43739311,-3.705855 -7.49666617,-3.772188 0.0591814,-0.06624 3.38049197,-3.777914 7.49666617,-3.777914 z m 15.1497967,0 c 4.116174,0 7.437481,3.711678 7.496666,3.777913 -0.05928,0.06634 -3.380546,3.772189 -7.496666,3.772189 -3.204614,0 -5.925908,-2.246375 -7.002488,-3.272283 -0.189048,-0.199608 -0.341535,-0.346498 -0.435031,-0.435032 -0.03478,-0.03728 -0.05311,-0.06026 -0.05725,-0.06487 0.0061,-0.0068 0.04605,-0.05206 0.118295,-0.127841 0.08134,-0.07835 0.190338,-0.185012 0.318643,-0.318642 1.03595,-1.000733 3.796463,-3.331432 7.057821,-3.331432 z m -7.574898,3.863775 c 0.0044,0.004 0.02545,0.02416 0.06105,0.05724 0.09054,0.09547 0.240424,0.24774 0.442662,0.438848 1.029181,1.078914 3.27419,3.799373 3.27419,7.000588 0,4.116106 -3.711576,7.437401 -3.77791,7.496676 -0.06634,-0.05928 -3.777911,-3.38057 -3.777911,-7.496676 0,-3.201213 2.245006,-5.921673 3.27419,-7.000588 0.204624,-0.214511 0.361359,-0.363203 0.442663,-0.438848 0.03556,-0.03309 0.05657,-0.05323 0.06105,-0.05724 z m -1.173442,1.091397 c -1.131234,1.354196 -2.697961,3.7144 -2.697961,6.40528 0,0.448132 0.04449,0.886178 0.12213,1.312729 -2.9290914,1.988623 -6.8563228,1.772509 -6.9223522,1.76875 -0.00441,-0.07687 -0.2118858,-3.991917 1.7725656,-6.916634 0.429649,0.07875 0.8725834,0.124023 1.3241745,0.124023 2.6884691,0 5.0466671,-1.563153 6.4014571,-2.694148 z m 2.346883,0 c 1.35479,1.130995 3.712988,2.694148 6.401457,2.694148 0.45379,0 0.898279,-0.04455 1.329899,-0.124023 1.983539,2.924631 1.771188,6.839802 1.766841,6.916634 -0.07666,0.0043 -3.997584,0.219062 -6.922352,-1.764935 0.07798,-0.427557 0.12213,-0.867289 0.12213,-1.316545 0,-2.690879 -1.566727,-5.051084 -2.697961,-6.40528 z" /></svg>
