<svg width="32" height="32" version="1.1" viewBox="0 0 32 32" xmlns="http://www.w3.org/2000/svg"><g><path d="m5.79 2.24a1.1 1.1 0 00-1.1 1.1v25.3a1.1 1.1 0 001.1 1.1h18.7a1.1 1.1 0 001.1-1.1v-10.7a1.1 1.1 0 00-1.1-1.1 1.1 1.1 0 00-1.1 1.1v9.61h-16.5v-23.1h6.03a1.1 1.1 0 001.1-1.1 1.1 1.1 0 00-1.1-1.1zm15.1 0a1.1 1.1 0 00-1.1 1.1v4.25h-4.25a1.1 1.1 0 00-1.1 1.1 1.1 1.1 0 001.1 1.1h4.25v4.25a1.1 1.1 0 001.1 1.1 1.1 1.1 0 001.1-1.1v-4.25h4.25a1.1 1.1 0 001.1-1.1 1.1 1.1 0 00-1.1-1.1h-4.25v-4.25a1.1 1.1 0 00-1.1-1.1zm-11.9 14.3a1.1 1.1 0 00-1.1 1.1 1.1 1.1 0 001.1 1.1h3.88a1.1 1.1 0 001.1-1.1 1.1 1.1 0 00-1.1-1.1zm0 4.77a1.1 1.1 0 00-1.1 1.1 1.1 1.1 0 001.1 1.1h8.97a1.1 1.1 0 001.1-1.1 1.1 1.1 0 00-1.1-1.1z" fill="#fff" stop-color="#000000" stroke-linecap="round" stroke-linejoin="round" style="paint-order:markers fill stroke"/></g></svg>
