<?xml version="1.0" encoding="UTF-8" standalone="no"?>
<svg
   width="189"
   height="40"
   viewBox="0 0 189 40"
   fill="none"
   version="1.1"
   id="svg6"
   sodipodi:docname="web_dark_sq_ctn.svg"
   inkscape:version="1.4 (86a8ad7, 2024-10-11)"
   xmlns:inkscape="http://www.inkscape.org/namespaces/inkscape"
   xmlns:sodipodi="http://sodipodi.sourceforge.net/DTD/sodipodi-0.dtd"
   xmlns="http://www.w3.org/2000/svg"
   xmlns:svg="http://www.w3.org/2000/svg">
  <sodipodi:namedview
     id="namedview6"
     pagecolor="#ffffff"
     bordercolor="#000000"
     borderopacity="0.25"
     inkscape:showpageshadow="2"
     inkscape:pageopacity="0.0"
     inkscape:pagecheckerboard="0"
     inkscape:deskcolor="#d1d1d1"
     inkscape:zoom="2.3492064"
     inkscape:cx="31.5"
     inkscape:cy="84.496622"
     inkscape:window-width="1920"
     inkscape:window-height="1009"
     inkscape:window-x="-8"
     inkscape:window-y="-8"
     inkscape:window-maximized="1"
     inkscape:current-layer="svg6" />
  <rect
     x="0.5"
     y="0.5"
     width="188"
     height="39"
     rx="3.5"
     fill="#131314"
     id="rect1" />
  <g
     clip-path="url(#clip0_760_7198)"
     id="g4">
    <path
       d="M31.6 20.2273C31.6 19.5182 31.5364 18.8364 31.4182 18.1818H22V22.05H27.3818C27.15 23.3 26.4455 24.3591 25.3864 25.0682V27.5773H28.6182C30.5091 25.8364 31.6 23.2727 31.6 20.2273V20.2273Z"
       fill="#4285F4"
       id="path1" />
    <path
       d="M22 30C24.7 30 26.9636 29.1045 28.6181 27.5773L25.3863 25.0682C24.4909 25.6682 23.3454 26.0227 22 26.0227C19.3954 26.0227 17.1909 24.2636 16.4045 21.9H13.0636V24.4909C14.7091 27.7591 18.0909 30 22 30Z"
       fill="#34A853"
       id="path2" />
    <path
       d="M16.4045 21.9C16.2045 21.3 16.0909 20.6591 16.0909 20C16.0909 19.3409 16.2045 18.7 16.4045 18.1V15.5091H13.0636C12.3864 16.8591 12 18.3864 12 20C12 21.6136 12.3864 23.1409 13.0636 24.4909L16.4045 21.9V21.9Z"
       fill="#FBBC04"
       id="path3" />
    <path
       d="M22 13.9773C23.4681 13.9773 24.7863 14.4818 25.8227 15.4727L28.6909 12.6045C26.9591 10.9909 24.6954 10 22 10C18.0909 10 14.7091 12.2409 13.0636 15.5091L16.4045 18.1C17.1909 15.7364 19.3954 13.9773 22 13.9773Z"
       fill="#E94235"
       id="path4" />
  </g>
  <rect
     x="0.5"
     y="0.5"
     width="188"
     height="39"
     rx="3.5"
     stroke="#8E918F"
     id="rect5" />
  <defs
     id="defs6">
    <clipPath
       id="clip0_760_7198">
      <rect
         width="20"
         height="20"
         fill="white"
         transform="translate(12 10)"
         id="rect6" />
    </clipPath>
  </defs>
  <text
     xml:space="preserve"
     style="font-style:normal;font-variant:normal;font-weight:normal;font-stretch:normal;font-size:13.3333px;line-height:0;font-family:Roboto;-inkscape-font-specification:Roboto;text-align:center;letter-spacing:0px;word-spacing:0px;writing-mode:lr-tb;direction:ltr;text-anchor:middle;fill:#e3e3e3;fill-opacity:1;stroke:none;stroke-width:2.2;stroke-linecap:round;stroke-linejoin:round;paint-order:stroke fill markers"
     x="106.1086"
     y="24.499975"
     id="text6"><tspan
       sodipodi:role="line"
       id="tspan6"
       x="106.1086"
       y="24.499975">Continuar con Google</tspan></text>
</svg>
