<svg width="32" height="32" version="1.1" viewBox="0 0 32 32" xmlns="http://www.w3.org/2000/svg"><g><path d="m21.9 3.9a1.1 1.1 0 00-1.1 1.1v4.25h-4.25a1.1 1.1 0 00-1.1 1.1 1.1 1.1 0 001.1 1.1h4.25v4.25a1.1 1.1 0 001.1 1.1 1.1 1.1 0 001.1-1.1v-4.25h4.25a1.1 1.1 0 001.1-1.1 1.1 1.1 0 00-1.1-1.1h-4.25v-4.25a1.1 1.1 0 00-1.1-1.1zm-17.3 2.69a1.1 1.1 0 00-1.1 1.1v16.2a1.1 1.1 0 001.1 1.1h3.41v3.06a1.1 1.1 0 001.62.969l7.52-4.03h8.55a1.1 1.1 0 001.1-1.1v-5.57a1.1 1.1 0 00-1.1-1.1 1.1 1.1 0 00-1.1 1.1v4.47h-7.73a1.1 1.1 0 00-.52.129l-6.15 3.29v-2.32a1.1 1.1 0 00-1.1-1.1h-3.41v-14h7.27a1.1 1.1 0 001.1-1.1 1.1 1.1 0 00-1.1-1.1z" fill="#fff" stop-color="#000000" stroke-linecap="round" stroke-linejoin="round" style="paint-order:markers fill stroke"/></g></svg>
