<svg width="32" height="32" version="1.1" viewBox="0 0 32 32" xmlns="http://www.w3.org/2000/svg"><g><path d="m12.7 1.63a1.1 1.1 0 00-1.06.816l-.932 3.47h-8.41a1.1 1.1 0 00-1.1 1.1 1.1 1.1 0 001.1 1.1h27.5a1.1 1.1 0 001.1-1.1 1.1 1.1 0 00-1.1-1.1h-8.41l-.932-3.47a1.1 1.1 0 00-1.06-.816h-3.35zm.844 2.2h5.01l.561 2.09h-6.13zm-6.84 5.48a1.1 1.1 0 00-1.1 1.1v18.8a1.1 1.1 0 001.1 1.1h18.7a1.1 1.1 0 001.1-1.1v-18.8a1.1 1.1 0 00-1.1-1.1 1.1 1.1 0 00-1.1 1.1v17.7h-16.5v-17.7a1.1 1.1 0 00-1.1-1.1zm4.75 4.44a1.1 1.1 0 00-1.1 1.1v8.14a1.1 1.1 0 001.1 1.1 1.1 1.1 0 001.1-1.1v-8.14a1.1 1.1 0 00-1.1-1.1zm4.6 0a1.1 1.1 0 00-1.1 1.1v8.14a1.1 1.1 0 001.1 1.1 1.1 1.1 0 001.1-1.1v-8.14a1.1 1.1 0 00-1.1-1.1zm4.6 0a1.1 1.1 0 00-1.1 1.1v8.14a1.1 1.1 0 001.1 1.1 1.1 1.1 0 001.1-1.1v-8.14a1.1 1.1 0 00-1.1-1.1z" fill="#fff" stop-color="#000000" stroke-linecap="round" stroke-linejoin="round" style="paint-order:markers fill stroke"/></g></svg>
