<svg width="32" height="32" version="1.1" viewBox="0 0 32 32" xmlns="http://www.w3.org/2000/svg"><g><path d="m23.4.984-13.2 13.2a1.1 1.1 0 00-.301.564l-1.28 6.5a1.1 1.1 0 001.29 1.29l6.5-1.28a1.1 1.1 0 00.564-.301l13.2-13.2a1.1 1.1 0 000-1.56l-5.22-5.22a1.1 1.1 0 00-1.55 0zm.777 2.33 3.66 3.66-12.2 12.2-4.56.9.9-4.56zm-21.5 20.6a1.1 1.1 0 00-1.1 1.1v5.17a1.1 1.1 0 001.1 1.1h26.7a1.1 1.1 0 001.1-1.1v-5.17a1.1 1.1 0 00-1.1-1.1zm1.1 2.2h24.5v2.97h-24.5z" fill="#fff" stop-color="#000000" stroke-linecap="round" stroke-linejoin="round" style="paint-order:stroke fill markers"/></g></svg>
