<svg width="32" height="32" version="1.1" viewBox="0 0 32 32" xmlns="http://www.w3.org/2000/svg"><g><path transform="rotate(-90 15.8 15.8)" d="m3.19.996c-.575.101-1.11.371-1.51.756-.802.77-1.16 2.08-.629 3.26l4.96 11-4.96 11c-.533 1.18-.173 2.49.629 3.26.802.77 2.12 1.08 3.28.5l23.9-12c2.22-1.11 2.22-4.44 0-5.55l-23.9-12c-.58-.29-1.2-.357-1.78-.256zm.791 2.22 23.9 12c.725.363.725 1.25 0 1.61l-23.9 12c-.337.168-.569.079-.773-.117-.204-.196-.303-.425-.148-.768l5.37-11.9-5.37-11.9c-.155-.343-.0558-.571.148-.768.204-.196.437-.285.773-.117z" fill="#fff" stop-color="#000000"/></g></svg>
