<svg width="32" height="32" version="1.1" viewBox="0 0 32 32" xmlns="http://www.w3.org/2000/svg"><g><path d="m16 1.45c-1.9-.00249-3.35.802-4.21 1.82-.856 1.01-1.2 2.12-1.2 3.06v9.48c0 .937.347 2.05 1.2 3.06.866 1.02 2.32 1.82 4.21 1.82 1.9-.0025 3.34-.813 4.2-1.83.849-1.01 1.19-2.12 1.19-3.05v-9.48c0-.928-.34-2.04-1.19-3.05-.86-1.02-2.31-1.83-4.2-1.83zm-.002 2.62c1.21.00158 1.78.406 2.2.904.408.485.574 1.21.574 1.36v9.48c0 .152-.166.877-.574 1.36-.42.498-.997.903-2.2.904-1.21.0016-1.79-.403-2.21-.902-.413-.486-.582-1.21-.582-1.36v-9.48c0-.151.169-.877.582-1.36.424-.5 1.01-.904 2.21-.902zm-8.57 10.7a1.1 1.1 0 00-1.14 1.06s-.0993 3.68 3.01 6.68c2.28 2.2 4.39 2.54 5.59 2.63v4.36a1.1 1.1 0 001.1 1.1 1.1 1.1 0 001.1-1.1v-4.36c1.21-.0927 3.31-.436 5.59-2.63 3.11-2.99 3.01-6.68 3.01-6.68a1.1 1.1 0 00-1.14-1.06 1.1 1.1 0 00-1.06 1.14s.129 2.64-2.34 5.01c-2.47 2.38-5.09 2.17-5.09 2.17a1.1 1.1 0 00-.0742.0273 1.1 1.1 0 00-.0742-.0273s-2.63.21-5.09-2.17c-2.47-2.37-2.34-5.01-2.34-5.01a1.1 1.1 0 00-1.06-1.14z" fill="#fff" stop-color="#000000" stroke-linecap="round" stroke-linejoin="round" style="paint-order:markers fill stroke"/></g></svg>
