<svg width="32" height="32" version="1.1" viewBox="0 0 32 32" xml:space="preserve" xmlns="http://www.w3.org/2000/svg"><g><path d="m29.4 16h-26.7m23.5 8.97s-2.4-2.56-10.2-2.56c-7.77 0-10.1 2.56-10.1 2.56m3.34-8.97a6.78 12.3 0 0 1 6.78-12.3 6.78 12.3 0 0 1 6.78 12.3 6.78 12.3 0 0 1-6.78 12.3 6.78 12.3 0 0 1-6.78-12.3zm-6.71 0a13.5 13.5 0 0 1 13.5-13.5 13.5 13.5 0 0 1 13.5 13.5 13.5 13.5 0 0 1-13.5 13.5 13.5 13.5 0 0 1-13.5-13.5zm0.121 0h26.7m-23.5-8.97s2.4 2.56 10.2 2.56c7.77 0 10.1-2.56 10.1-2.56m-3.34 8.97a6.78 12.3 0 0 1-6.78 12.3 6.78 12.3 0 0 1-6.78-12.3 6.78 12.3 0 0 1 6.78-12.3 6.78 12.3 0 0 1 6.78 12.3zm6.71 0a13.5 13.5 0 0 1-13.5 13.5 13.5 13.5 0 0 1-13.5-13.5 13.5 13.5 0 0 1 13.5-13.5 13.5 13.5 0 0 1 13.5 13.5z" fill="none" stroke="#fff" stroke-width="2.2"/></g></svg>
