<svg width="32" height="32" version="1.1" viewBox="0 0 32 32" xmlns="http://www.w3.org/2000/svg"><g><path d="m16 .934c-3.35 5e-8-6.21 1.27-8.17 3.4-1.96 2.14-3.03 5.1-3.03 8.41 0 .901.298 1.88.809 3s1.25 2.33 2.22 3.48c.626.741 1.13 1.54 1.63 2.27.502.735.982 1.45 1.81 1.91.873.488 1.77.43 2.57.352.799-.0784 1.56-.211 2.16-.211.784 0 1.38.126 2.04.207.661.0807 1.49.0894 2.25-.357.745-.436 1.32-1.09 1.93-1.84.607-.747 1.22-1.59 1.81-2.38 1.12-1.49 3.07-3.41 3.07-6.43 0-3.31-1.04-6.27-2.98-8.41-1.94-2.14-4.78-3.41-8.13-3.41zm0 2.2c2.81 0 4.98 1.01 6.5 2.69 1.52 1.68 2.41 4.08 2.41 6.93 0 2.05-1.36 3.42-2.63 5.1-.616.817-1.22 1.65-1.76 2.32-.547.673-1.08 1.18-1.33 1.33-.219.128-.361.137-.877.0742-.516-.063-1.29-.225-2.31-.225-.883 0-1.7.157-2.37.223-.668.0655-1.12.0056-1.28-.082-.204-.114-.604-.553-1.07-1.23-.465-.681-1.02-1.56-1.77-2.45-.833-.986-1.48-2.04-1.9-2.97-.425-.928-.609-1.76-.609-2.08 0-2.85.903-5.24 2.45-6.93 1.55-1.68 3.74-2.69 6.55-2.69zm4.09 20.9-8.62 1.44a1.1 1.1 0 00-.904 1.27 1.1 1.1 0 001.27.904l8.62-1.44a1.1 1.1 0 00.904-1.27 1.1 1.1 0 00-1.27-.904zm-.588 3.74s-.0078.0487-.557.293c-.549.244-1.53.582-3.16.846-1.63.265-2.62.255-3.14.199-.263-.0279-.411-.0652-.471-.084-.0602-.0188.0508.0332.0508.0332a1.1 1.1 0 00-1.51.363 1.1 1.1 0 00.365 1.51s.224.122.439.189c.216.0676.507.131.896.172.779.0825 1.95.0734 3.73-.215 1.78-.289 2.95-.67 3.71-1.01.755-.336 1.2-.73 1.2-.73a1.1 1.1 0 00.0176-1.56 1.1 1.1 0 00-1.56-.0176z" fill="#fff" stop-color="#000000" stroke-linecap="round" stroke-linejoin="round" style="paint-order:markers fill stroke"/></g></svg>
