<svg width="32" height="32" version="1.1" viewBox="0 0 32 32" xml:space="preserve" xmlns="http://www.w3.org/2000/svg"><g><path d="m14.2 28.6c-0.162 0.248-0.886 0.256-0.994 0.0105-0.108-0.245 2.09-13.3 2.61-15.6 0.0649-0.282 5.52-0.0773 6.69-0.0716 0.628 0.0031 0.853 0.792 0.615 1.24s-8.77 14.2-8.93 14.4zm3.72-25.2c0.162-0.248 0.886-0.256 0.994-0.0105s-2.09 13.3-2.61 15.6c-0.0649 0.282-5.52 0.0773-6.69 0.0716-0.628-0.00306-0.853-0.792-0.615-1.24 0.238-0.451 8.77-14.2 8.93-14.4z" fill="#fff"/></g></svg>
