<svg width="32" height="32" version="1.1" viewBox="0 0 32 32" xml:space="preserve" xmlns="http://www.w3.org/2000/svg"><path d="m24.1 10.2c-0.804 0.442-1.6 0.987-2.54 1.08-0.114 0.0565-0.54-0.0669-0.343 0.112 0.64 0.733 1.14 1.6 1.43 2.52 0.386-0.648 0.964-1.16 1.62-1.52 0.275-0.164 0.558-0.317 0.837-0.475-0.334-0.569-0.644-1.16-1-1.71zm-1.49 8.07c-0.319 0.919-0.826 1.77-1.47 2.49 0.865-0.0219 1.69 0.321 2.41 0.781 0.182 0.0997 0.362 0.231 0.55 0.304 0.351-0.546 0.691-1.11 0.969-1.69-0.0511-0.103-0.233-0.136-0.327-0.215-0.806-0.446-1.62-0.968-2.09-1.79-0.0142 0.0184-0.0284 0.0849-0.0407 0.12zm-5.16 4.6c-0.761 0.175-1.55 0.147-2.33 0.0992-0.199-0.0046-0.418-0.0679-0.6-0.0849 0.213 0.537 0.463 1.09 0.458 1.68 0.0149 0.474 0.0057 0.949 0.0083 1.42h2c0.0181-0.632-0.0411-1.27 0.0429-1.9 0.087-0.424 0.267-0.824 0.436-1.22-0.0035-0.0051-0.0108-0.0038-0.0159-0.0032zm-8.14-4.69c-0.439 0.659-1.04 1.2-1.75 1.57-0.233 0.135-0.469 0.263-0.704 0.395 0.338 0.567 0.646 1.16 1 1.71 0.902-0.509 1.84-1.13 2.92-1.09 0.0655-0.048-0.191-0.241-0.25-0.351-0.548-0.661-0.922-1.44-1.23-2.23zm-1.46-7.97c-0.32 0.559-0.678 1.11-0.953 1.7 0.064 0.106 0.25 0.147 0.355 0.23 0.777 0.431 1.56 0.935 2.03 1.71 0.0905 0.0605 0.117-0.271 0.183-0.347 0.314-0.806 0.782-1.55 1.35-2.19-0.673-7.88e-4 -1.33-0.194-1.92-0.52-0.36-0.174-0.695-0.41-1.05-0.579zm7.13-3.3c0.013 0.683-0.0304 1.39-0.36 2-0.0192 0.0829-0.135 0.206-0.0912 0.279 0.775-0.181 1.58-0.134 2.37-0.0933 0.187 0.00605 0.386 0.0658 0.56 0.088-0.243-0.545-0.482-1.12-0.46-1.73-0.0113-0.458-0.0164-0.916-0.0245-1.37h-1.99v0.829zm6.44 9.12a5.44 5.44 0 0 1-5.44 5.44 5.44 5.44 0 0 1-5.44-5.44 5.44 5.44 0 0 1 5.44-5.44 5.44 5.44 0 0 1 5.44 5.44zm-7.56-9.73c-0.0083 0.47 0.0295 0.946-0.0072 1.41-0.198 0.965-0.848 1.84-1.76 2.23-0.879 0.394-1.95 0.324-2.77-0.191-0.631-0.355-1.25-0.737-1.87-1.11-0.708 1.23-1.43 2.46-2.13 3.7 0.78 0.452 1.6 0.84 2.34 1.36 1 0.784 1.38 2.24 0.908 3.42-0.267 0.717-0.836 1.29-1.51 1.63-0.575 0.33-1.16 0.646-1.74 0.969 0.698 1.24 1.42 2.46 2.13 3.7 0.793-0.455 1.55-0.978 2.38-1.36 1.12-0.428 2.47-0.104 3.26 0.798 0.412 0.457 0.685 1.05 0.766 1.65-0.0062 0.87-0.0125 1.74-0.0187 2.61h4.26c-7.81e-4 -0.911-0.0245-1.82-0.0111-2.73 0.186-0.901 0.744-1.74 1.57-2.16 0.914-0.498 2.09-0.461 2.97 0.0958 0.629 0.355 1.24 0.736 1.86 1.1 0.708-1.23 1.43-2.46 2.13-3.7-0.78-0.452-1.6-0.84-2.34-1.36-0.989-0.773-1.38-2.2-0.925-3.37 0.263-0.734 0.835-1.33 1.53-1.68 0.574-0.335 1.17-0.637 1.73-0.987-0.705-1.23-1.41-2.45-2.12-3.68-0.804 0.459-1.57 0.997-2.42 1.37-1.03 0.381-2.29 0.141-3.07-0.654-0.62-0.565-0.984-1.41-0.926-2.25 7.32e-4 -0.722 0.0094-1.44 0.014-2.17h-4.26c0.0031 0.451 0.0062 0.901 0.0093 1.35z" fill="none" stroke="#fff" stroke-linejoin="round" stroke-width="2.2"/></svg>
